<svg xmlns="http://www.w3.org/2000/svg" viewBox="64 64 416 416" role="img" aria-labelledby="title desc">
  <title id="title">Scio Geo</title>
  <desc id="desc">A blue globe with green land and an orbiting star on a transparent background.</desc>
  <defs>
    <linearGradient id="ocean" x1="0" y1="0" x2="1" y2="1">
      <stop offset="0" stop-color="#55d6ff"/>
      <stop offset="1" stop-color="#0876c9"/>
    </linearGradient>
  </defs>
  <circle cx="256" cy="264" r="150" fill="url(#ocean)" stroke="#8deaff" stroke-width="10"/>
  <path d="M159 174c31-37 76-59 123-59l19 21-13 29-35 8-18 30-34-7-20 19-29-12z" fill="#7edb91"/>
  <path d="M305 226l44-18 48 31 8 49-26 39-15 52-46 24-20-30 8-36-27-31 14-36z" fill="#5fc982"/>
  <path d="M128 300l35 5 20 33 35 14-8 42-38-18-28-35z" fill="#8be19a"/>
  <path d="M82 310c37 83 139 145 236 116 48-14 89-46 114-87" fill="none" stroke="#f9d86b" stroke-linecap="round" stroke-width="13"/>
  <path d="M416 94l12 30 31 2-24 20 8 31-27-17-27 17 8-31-24-20 31-2z" fill="#ffd65c"/>
</svg>
